<svg width="320" height="320" viewBox="0 0 32 32" fill="none" xmlns="http://www.w3.org/2000/svg"><rect width="32" height="32"></rect><path d="M6.70814 18.89C6.42765 18.6111 6.2204 18.2673 6.10481 17.8891C5.98922 17.5109 5.96888 17.1099 6.04558 16.7219C6.12228 16.334 6.29366 15.9709 6.54448 15.6651C6.79529 15.3593 7.11778 15.1203 7.48326 14.9691C7.84875 14.818 8.24591 14.7595 8.63945 14.7989C9.03298 14.8382 9.41069 14.9742 9.73901 15.1948C10.0673 15.4153 10.3361 15.7135 10.5213 16.0629C10.7066 16.4123 10.8027 16.8021 10.8011 17.1976L10.8011 28M24.4961 15.2892C24.7766 15.0103 24.9839 14.6665 25.0994 14.2883C25.215 13.9101 25.2354 13.5091 25.1587 13.1211C25.082 12.7332 24.9106 12.3701 24.6598 12.0643C24.409 11.7585 24.0865 11.5195 23.721 11.3683C23.3555 11.2172 22.9583 11.1587 22.5648 11.1981C22.1713 11.2374 21.7936 11.3734 21.4652 11.5939C21.1369 11.8145 20.8682 12.1127 20.6829 12.4621C20.4976 12.8115 20.4015 13.2013 20.4032 13.5968L20.4032 28M10.477 9.11978C10.1288 8.77068 9.87194 8.34115 9.72923 7.86918C9.58651 7.39721 9.5623 6.89734 9.65874 6.41379C9.75518 5.93024 9.96929 5.4779 10.2821 5.09679C10.595 4.71567 10.9969 4.41752 11.4524 4.22871C11.9079 4.0399 12.4029 3.96625 12.8937 4.01426C13.3844 4.06228 13.8557 4.23048 14.266 4.504C14.6762 4.77751 15.0128 5.14792 15.2458 5.58244C15.4789 6.01697 15.6012 6.50223 15.6021 6.9953L15.6021 28" stroke="white" stroke-width="1.5" stroke-linecap="round" stroke-linejoin="round"></path></svg>